<?xml version="1.0" encoding="UTF-8"?>
<svg width="100" height="64.309" version="1.1" viewBox="0 0 100 64.309" xmlns="http://www.w3.org/2000/svg"><path id="ti18n" d="m39.04 0a2.5268 2.5268 0 0 0-2.5267 2.5267v3.176e-4h-3.34e-4c-1.67e-4 2.0931-1.6969 3.7901-3.7901 3.7901h-3.35e-4v3.175e-4a2.5268 2.5268 0 0 0-2.5264 2.5267 2.5268 2.5268 0 0 0 2.5267 2.5267h3.7901a2.5268 2.5268 0 0 0 3.34e-4 0v27.732a2.5268 2.5268 0 0 0 2.5267 2.5267 2.5268 2.5268 0 0 0 2.5267-2.5267v-36.576a2.5268 2.5268 0 0 0-2.5267-2.5267zm-13.772 6.3171c-1.398 0-2.5267 1.129-2.5267 2.527 0 1.3978 1.1287 2.5267 2.5267 2.5267 1.398 0 2.5267-1.1289 2.5267-2.5267 0-1.3981-1.1287-2.527-2.5267-2.527zm-22.742 3.176e-4c-1.3954 7.59e-5 -2.5266 1.1313-2.5267 2.5267 7.3542e-5 1.3954 1.1313 2.5266 2.5267 2.5267h9.8548v27.732c7.6e-5 1.3954 1.1313 2.5266 2.5267 2.5267 1.3954-7.5e-5 2.5266-1.1313 2.5267-2.5267v-27.732h5.3645c-0.65802-0.64327-1.0685-1.5392-1.0685-2.5267 0-0.98761 0.41044-1.8833 1.0685-2.5267zm25.211 0c0.29704 0.29043 0.5437 0.63202 0.72471 1.0107h1.0665c0.18101-0.37866 0.42767-0.72025 0.72472-1.0107zm14.84 0v1.0107h54.896c0.83726 3.34e-5 1.516 0.67877 1.516 1.516-3.4e-5 0.83726-0.67876 1.516-1.516 1.516h-54.896v1.0107h54.896c1.3954-7.4e-5 2.5266-1.1313 2.5267-2.5267-7.5e-5 -1.3954-1.1313-2.5266-2.5267-2.5267zm-13.808 2.0214c0.02388 0.16519 0.03689 0.33379 0.03689 0.50534 0 0.17153-0.013 0.34017-0.03689 0.50534h0.45344c-0.02388-0.16518-0.03689-0.33381-0.03689-0.50534 0-0.17155 0.013-0.34015 0.03689-0.50534zm13.808 0v1.0107h54.896c0.2791 8.4e-6 0.50535-0.22625 0.50534-0.50534 1e-5 -0.27909-0.22624-0.50535-0.50534-0.50534zm-14.115 2.0214c-0.18101 0.37862-0.42767 0.72029-0.72471 1.0107h2.5159c-0.29704-0.29039-0.5437-0.63207-0.72472-1.0107zm-3.3203 3.5377a2.5268 2.5268 0 0 0-2.5267 2.5267v22.679a2.5268 2.5268 0 0 0 2.5267 2.5267 2.5268 2.5268 0 0 0 2.5267-2.5267v-22.679a2.5268 2.5268 0 0 0-2.5267-2.5267zm35.344 0c-7.6281 0-13.866 6.2381-13.866 13.866 0 4.6724 2.3424 8.82 5.909 11.335-3.5691 2.5122-5.9094 6.6602-5.9094 11.343 0 7.6412 6.225 13.866 13.866 13.866s13.866-6.225 13.866-13.866c0-7.6412-6.225-13.866-13.866-13.866a2.5268 2.5268 0 0 1-3.34e-4 0c-4.8968 0-8.8121-3.9153-8.8121-8.8121 0-4.8968 3.9153-8.8124 8.8121-8.8124 4.8968 0 8.8128 3.9157 8.8128 8.8124v7.7659c8.9e-5 2.0781 0.85127 3.991 2.2202 5.3599a2.5268 2.5268 0 0 0 1.787 0.74006 2.5268 2.5268 0 0 0 1.7866-0.74006 2.5268 2.5268 0 0 0 0-3.5733c-0.46022-0.46022-0.74006-1.0742-0.74006-1.787a2.5268 2.5268 0 0 0-3.35e-4 -0.0036v-8.1096a2.5268 2.5268 0 0 0-0.01175-0.12079c-0.24958-7.4129-6.3834-13.398-13.854-13.398zm22.71 0c-1.3954 7.5e-5 -2.5266 1.1313-2.5267 2.5267v22.679c7.5e-5 1.3954 1.1313 2.5266 2.5267 2.5267 1.3954-7.5e-5 2.5266-1.1313 2.5267-2.5267v-15.538l3.35e-4 -0.0026c0-2.5769 2.0347-4.6117 4.6117-4.6117 2.5767 0 4.6114 2.0348 4.6114 4.6117v15.54c6.7e-5 1.3954 1.1313 2.5266 2.5267 2.5267 1.3954-7.5e-5 2.5266-1.1313 2.5267-2.5267v-15.54c0-5.3081-4.357-9.6651-9.6648-9.6651-1.7891 0-3.4694 0.4968-4.9121 1.3564-0.43365-0.82972-1.2905-1.3517-2.2267-1.3564zm-20.565 23.871c6.0735 1.0234 10.71 6.3115 10.71 12.673 0 7.093-5.7625 12.856-12.856 12.856s-12.856-5.7625-12.856-12.856c0-4.4935 2.3145-8.4506 5.8131-10.749 1.1342 0.67377 2.3707 1.191 3.6804 1.5203-3.7638 1.3774-6.461 4.9975-6.461 9.2293 0 5.412 4.4112 9.8228 9.8231 9.8228 5.412 0 9.8231-4.4108 9.8231-9.8228 0-4.7838-3.4474-8.7833-7.9852-9.6478a2.5268 2.5268 0 0 0 0.56639-0.91601c4.8293 1.0922 8.4299 5.4011 8.4299 10.564 0 5.9893-4.8448 10.834-10.834 10.834a0.50532 0.50532 0 0 0-0.50534 0.50534 0.50532 0.50532 0 0 0 0.50534 0.50534c6.5355 0 11.845-5.3093 11.845-11.845 0-5.6728-4.0011-10.419-9.3312-11.574a2.5268 2.5268 0 0 0-0.36856-1.0995zm-2.1435 3.8609c4.8631 8.35e-4 8.8108 3.9495 8.8108 8.8128 0 4.8638-3.9486 8.8121-8.8124 8.8121-4.8638 0-8.8124-3.9483-8.8124-8.8121 0-4.8616 3.9451-8.8089 8.8059-8.8124 0.0021 1e-6 0.0041 0 0.0062 0a2.5268 2.5268 0 0 0 2e-3 -3.35e-4z"/>
</svg>
